<?xml version="1.0" encoding="UTF-8"?>
<!DOCTYPE svg PUBLIC "-//W3C//DTD SVG 1.1//EN" "http://www.w3.org/Graphics/SVG/1.1/DTD/svg11.dtd">
<!-- Creator: CorelDRAW 2021.5 -->
<svg xmlns="http://www.w3.org/2000/svg" xml:space="preserve" width="152mm" height="60mm" version="1.1" style="shape-rendering:geometricPrecision; text-rendering:geometricPrecision; image-rendering:optimizeQuality; fill-rule:evenodd; clip-rule:evenodd"
viewBox="0 0 15200 6000"
 xmlns:xlink="http://www.w3.org/1999/xlink"
 xmlns:xodm="http://www.corel.com/coreldraw/odm/2003">
 <defs>
  <style type="text/css">
   <![CDATA[
    .fil6 {fill:none}
    .fil0 {fill:black;fill-rule:nonzero}
    .fil4 {fill:#006CB5;fill-rule:nonzero}
    .fil7 {fill:#006EA8;fill-rule:nonzero}
    .fil3 {fill:#00AFEF;fill-rule:nonzero}
    .fil2 {fill:#EC268F;fill-rule:nonzero}
    .fil1 {fill:#FFF212;fill-rule:nonzero}
    .fil5 {fill:#FEFEFE;fill-opacity:0.301961}
   ]]>
  </style>
     <clipPath id="id0">
      <path d="M5887 1211.08l9180.19 0 0 1822.58 -9180.19 0 0 -1822.58z"/>
     </clipPath>
     <clipPath id="id1">
      <path d="M7219.27 1185.72l0 268.68 -467.77 0 0 1148.3 -299.47 0 0 -1148.3 -479.17 0 0 -268.68 1246.41 0zm1201.64 1001.12l-786.35 0c5.69,60.47 29.94,110.96 72.44,151.76 52.19,49.92 120.37,73.57 204.8,70.73 68.43,-1.99 118.92,-10.84 152.3,-26.81 38.8,-17.97 73.31,-46.2 103.82,-84.72l220.18 68.17c-57.6,91 -122.93,155.45 -195.93,193.38 -69.31,35.93 -159.15,54.49 -270.11,55.35 -102.4,0.85 -188.54,-16.83 -258.7,-53.34 -70.16,-36.52 -133.19,-96.99 -189.11,-181.4 -53.9,-81.31 -80.99,-177.14 -80.99,-287.22 0,-164.86 50.2,-297.22 150.59,-396.75 95.83,-94.7 212.78,-141.47 351.12,-140.61 111.81,0.85 204.78,21.66 278.66,62.46 164.86,90.97 247.28,266.12 247.28,524.8l0 44.2zm-244.44 -181.38c-3.98,-73.03 -31.66,-131.22 -83.57,-174.55 -52.2,-43.07 -115.23,-64.19 -189.66,-63.34 -74.17,0.86 -136.63,21.98 -187.12,62.75 -53.33,44.51 -80.71,102.97 -81.56,175.14l541.91 0zm417.31 -15.4c0,-218.2 76.7,-351.41 230.16,-399.6 44.49,-14.27 94.7,-21.41 150.59,-21.41 22.83,0 45.94,0.57 69.6,1.73 85.28,8.56 165.71,52.77 241.58,132.91 93.56,-80.71 186.55,-123.78 278.38,-129.49 19.7,-1.14 39.37,-1.71 58.19,-1.71 135.49,0 236.73,42.22 304.05,126.63 36.79,45.37 55.33,135.77 55.33,271.26l0 634.05 -236.16 0 0 -574.17c0,-68.15 -8.85,-116.93 -26.81,-146.3 -23.68,-35.96 -67.04,-55.35 -130.35,-58.19 -125.77,-4.86 -188.54,67.88 -188.54,217.62l0 567.87 -231.02 0 0 -562.73c0,-82.72 -14.27,-138.05 -42.78,-166.59 -28.52,-28.23 -69.31,-42.5 -122.36,-42.5 -54.21,0 -94.98,14.56 -122.36,43.95 -34.23,36.22 -51.34,91.54 -51.34,166.56l0 561.31 -236.16 0 0 -621.2zm2628.03 86.13c0,-146.03 -46.48,-266.69 -139.47,-361.67 -92.68,-95.26 -215.61,-141.46 -367.93,-138.62 -132.91,2.85 -233.32,37.36 -301.49,103.54l0 -108.66 -243.01 0 0 1375.91 237.32 0 0 -479.74c78.72,65.3 181.12,98.96 307.18,100.95 141.18,2.02 256.14,-36.5 345.41,-115.22 107.8,-95.55 161.99,-221.04 161.99,-376.49zm-247.28 -7.13c-2.84,177.97 -105.81,270.1 -308.62,275.82 -164.86,-19.99 -252.14,-107.55 -261.55,-263 -4.55,-81.56 10.86,-145.44 47.08,-191.95 60.47,-77.58 141.46,-114.65 243.01,-110.93 87.28,3.98 157.16,32.78 210.2,86.71 48.5,48.47 71.59,116.07 69.88,203.35zm504.84 -891.9l239.6 0 0 1046.78c0,71.87 12.26,122.64 36.79,152.58 24.53,29.96 71.3,54.21 140.33,73.03l58.19 15.69 -108.09 214.48 -91 -27.1c-137.48,-40.51 -224.19,-122.07 -260.12,-244.15 -10.55,-35.08 -15.7,-86.7 -15.7,-154.88l0 -1076.43zm602.1 930.39c0,-148.59 45.66,-270.67 136.92,-366.22 94.98,-99.53 219.04,-147.74 371.93,-144.87 133.19,1.99 233.89,36.78 302.34,104.39l0 -112.95 241.31 0 0 1021.65 -237.89 0 0 -101.26c-79.58,67.89 -181.98,102.68 -307.18,104.7 -140.04,1.99 -255.29,-37.95 -345.41,-119.23 -108.09,-98.42 -162.02,-227.32 -162.02,-386.21zm241.31 7.42c2.84,181.41 106.38,274.97 310.33,280.68 164.86,-17.99 252.42,-107.83 262.97,-269.25 4.85,-82.44 -10.84,-147.46 -47.06,-195.67 -57.34,-75.6 -138.9,-113.52 -244.71,-113.52 -190.53,17.97 -284.38,117.21 -281.53,297.76zm1122.63 -820.57l241.3 -117.24 0 390.19 218.76 0 -1.42 232.74 -217.34 0 0 422.71c0,72.16 11.69,123.21 35.37,153.15 23.39,29.68 70.16,54.19 139.76,73.32l57.9 15.38 -108.11 215.07 -90.69 -26.81c-137.2,-40.8 -223.9,-122.08 -259.84,-243.87 -10.55,-35.08 -15.69,-86.71 -15.69,-154.59l0 -442.39 -145.45 0 0 -246.42 145.45 0 0 -271.24zm1654.59 892.44l-786.35 0c5.69,60.47 29.94,110.96 72.44,151.76 52.2,49.92 120.37,73.57 204.8,70.73 68.43,-1.99 118.92,-10.84 152.3,-26.81 38.8,-17.97 73.31,-46.2 103.82,-84.72l220.18 68.17c-57.6,91 -122.92,155.45 -195.93,193.38 -69.31,35.93 -159.15,54.49 -270.1,55.35 -102.4,0.85 -188.54,-16.83 -258.71,-53.34 -70.16,-36.52 -133.19,-96.99 -189.11,-181.4 -53.9,-81.31 -80.99,-177.14 -80.99,-287.22 0,-164.86 50.2,-297.22 150.59,-396.75 95.83,-94.7 212.79,-141.47 351.12,-140.61 111.81,0.85 204.78,21.66 278.66,62.46 164.86,90.97 247.28,266.12 247.28,524.8l0 44.2zm-244.43 -181.38c-3.99,-73.03 -31.67,-131.22 -83.58,-174.55 -52.2,-43.07 -115.23,-64.19 -189.66,-63.34 -74.16,0.86 -136.62,21.98 -187.11,62.75 -53.34,44.51 -80.71,102.97 -81.57,175.14l541.92 0z"/>
     </clipPath>
     <clipPath id="id2">
      <path d="M10513.78 2898.76l4288.67 0 0 2252.78 -4288.67 0 0 -2252.78z"/>
     </clipPath>
 </defs>
 <g id="Camada_x0020_1">
  <metadata id="CorelCorpID_0Corel-Layer"/>
  <g id="_2127978462432">
   <path class="fil0" d="M3001 495.13c182.29,-52.07 370.61,-65.35 558.91,-33.44 292.98,49.68 550.19,202.36 757.27,428.68 -165.36,-86.21 -340.77,-161.42 -525.25,-223.53 -264.21,-88.86 -529.88,-145.3 -790.93,-171.71z"/>
   <path class="fil0" d="M1361.18 2856.88c-52.65,447.81 -27.35,879.88 63.1,1270.3 -360.18,-496.85 -492.8,-1092.43 -307.22,-1644.02 -143.22,463.89 -75.6,954.96 157.51,1392.72 -86.28,-343.49 -49.12,-694.88 86.61,-1019z"/>
   <path class="fil0" d="M1614.98 651.22c394.57,-275.72 867.2,-436.38 1375.36,-436.38 50.2,0 100,1.75 149.47,4.83 -171.59,59.33 -338.13,146.47 -496.21,257.9 -363.54,1.23 -712.16,61.27 -1028.62,173.65z"/>
   <path class="fil0" d="M1498.78 4885.89c101.83,63.12 208.28,121.84 318.98,175.65l0.07 0.11c-110.74,-53.83 -217.17,-112.59 -319.05,-175.76z"/>
   <g>
    <path class="fil1" d="M5841.28 3901.48c424.99,-1262.81 -492.7,-2710.7 -2049.32,-3234.62 -1556.65,-523.54 -3163.3,75.63 -3588.21,1338.3 -424.65,1262.65 492.9,2710.92 2049.47,3234.55 1557,523.86 3163.15,-75.33 3588.06,-1338.23zm-4724.24 -1418.31l0 0c342.21,-1016.83 1635.98,-1499.35 2889.56,-1077.62 1253.81,421.81 1993.04,1587.78 1650.67,2605.03 -342.17,1017.04 -1635.98,1499.52 -2889.65,1077.64 -1253.62,-421.45 -1992.7,-1588.11 -1650.58,-2605.05z"/>
   </g>
   <path class="fil2" d="M5578.07 2583.76c-222.69,-823.13 -963.27,-1391.9 -1870.81,-1545.2 -1971.23,-90.16 -2394.6,810.55 -2590.2,1444.6 -143.22,463.89 -75.6,954.96 157.51,1392.72 -241.85,-962.85 485.62,-1987.99 1638.14,-2299.69 1163.49,-314.72 2319.79,216.94 2582.21,1187.22 262.64,970.77 -467.79,2012.8 -1631.27,2327.45 -256.73,69.43 -513.04,97.61 -759.51,89.01 333.6,69.9 663.66,77.86 971.66,31.38l20.91 61.51c1119.12,-531.41 1764.27,-1643.47 1481.36,-2689zm-5297.8 923.74c0.71,163.79 22.04,328.39 66.13,491.4 325.95,1205.14 1761.35,1865.55 3206.05,1474.58 73,-19.74 144.59,-41.91 214.78,-66.15 -480.57,55.49 -999.94,5.33 -1514.01,-167.61 -946.94,-318.56 -1657.31,-979.27 -1972.95,-1732.22z"/>
   <path class="fil3" d="M1390.5 2652.34c-266.64,1574.33 435.27,3005.94 1568.05,3198.01 1132.8,191.74 2267.24,-928.95 2533.95,-2503.19 20.6,-121.6 35.37,-242.32 44.66,-361.71 -8.7,-74.27 -22.19,-148.37 -42.24,-222.04 -106.86,-394.95 -361.93,-716.94 -705.21,-938.9 89.03,368.24 105.74,783.67 33.09,1212.25l0 0c-214.78,1268.01 -1128.39,2170.63 -2040.63,2016.05 -912.31,-154.45 -1477.95,-1307.42 -1263.08,-2575.26 214.9,-1267.82 1128.56,-2170.41 2040.82,-2015.86 470,79.69 847.96,424.39 1074.56,913.18 425.72,255.58 751.34,630.62 908.43,1093.6 -67.8,-1196.92 -702.23,-2163.63 -1618.57,-2318.77 -1132.8,-191.86 -2267.35,928.76 -2533.83,2502.64z"/>
   <g>
    <g style="clip-path:url(#id0)">
     <image x="5887" y="1211.08" width="9180.19" height="1822.58" xlink:href="logomarca_Images\logomarca_ImgID1.png"/>
    </g>
   </g>
   <g>
    <polygon class="fil4" points="7219.26,1185.72 7219.26,1454.4 6751.49,1454.4 6751.49,2602.7 6452.01,2602.7 6452.01,1454.4 5972.84,1454.4 5972.84,1185.72 "/>
    <path id="_1" class="fil4" d="M8420.9 2186.85l-786.36 0c5.71,60.47 29.95,110.95 72.45,151.74 52.19,49.91 120.36,73.58 204.79,70.73 68.45,-1.99 118.93,-10.84 152.31,-26.81 38.79,-17.97 73.3,-46.2 103.82,-84.71l220.19 68.17c-57.62,90.98 -122.93,155.44 -195.95,193.38 -69.31,35.94 -159.15,54.48 -270.1,55.33 -102.4,0.86 -188.54,-16.83 -258.7,-53.33 -70.17,-36.51 -133.2,-96.98 -189.1,-181.41 -53.91,-81.28 -81.01,-177.12 -81.01,-287.21 0,-164.86 50.2,-297.2 150.6,-396.75 95.84,-94.69 212.78,-141.47 351.11,-140.61 111.81,0.85 204.79,21.68 278.66,62.46 164.86,90.99 247.29,266.11 247.29,524.81l0 44.21zm-244.44 -181.4c-3.99,-73.02 -31.66,-131.2 -83.57,-174.56 -52.19,-43.07 -115.23,-64.17 -189.67,-63.32 -74.16,0.86 -136.62,21.97 -187.1,62.75 -53.34,44.5 -80.72,102.97 -81.58,175.13l541.92 0z"/>
    <path id="_2" class="fil4" d="M8593.74 1990.05c0,-218.2 76.73,-351.4 230.18,-399.6 44.49,-14.26 94.69,-21.39 150.59,-21.39 22.82,0 45.92,0.57 69.6,1.71 85.28,8.56 165.71,52.77 241.58,132.91 93.55,-80.71 186.53,-123.78 278.38,-129.49 19.68,-1.14 39.36,-1.71 58.18,-1.71 135.48,0 236.74,42.21 304.05,126.64 36.79,45.35 55.33,135.77 55.33,271.25l0 634.04 -236.16 0 0 -574.15c0,-68.17 -8.85,-116.94 -26.81,-146.32 -23.68,-35.93 -67.03,-55.33 -130.35,-58.18 -125.78,-4.85 -188.53,67.88 -188.53,217.62l0 567.88 -231.03 0 0 -562.74c0,-82.72 -14.26,-138.05 -42.78,-166.57 -28.53,-28.24 -69.31,-42.5 -122.36,-42.5 -54.2,0 -94.98,14.55 -122.36,43.92 -34.23,36.23 -51.34,91.56 -51.34,166.57l0 561.32 -236.17 0 0 -621.21z"/>
    <path id="_3" class="fil4" d="M11221.78 2076.18c0,-146.03 -46.49,-266.68 -139.48,-361.66 -92.69,-95.26 -215.62,-141.47 -367.93,-138.62 -132.91,2.86 -233.31,37.37 -301.48,103.54l0 -108.67 -243.01 0 0 1375.91 237.3 0 0 -479.74c78.73,65.31 181.12,98.97 307.19,100.97 141.18,1.99 256.13,-36.51 345.4,-115.23 107.82,-95.55 162.01,-221.05 162.01,-376.5zm-247.29 -7.13c-2.85,177.98 -105.82,270.11 -308.61,275.81 -164.86,-19.96 -252.14,-107.53 -261.55,-262.97 -4.56,-81.58 10.84,-145.47 47.06,-191.96 60.47,-77.58 141.47,-114.66 243.01,-110.95 87.28,4 157.16,32.8 210.21,86.71 48.49,48.49 71.59,116.09 69.88,203.36z"/>
    <path id="_4" class="fil4" d="M11479.33 1177.16l239.59 0 0 1046.77c0,71.87 12.27,122.64 36.79,152.59 24.53,29.95 71.31,54.19 140.33,73.02l58.19 15.69 -108.1 214.48 -90.99 -27.09c-137.47,-40.51 -224.18,-122.08 -260.12,-244.15 -10.55,-35.09 -15.69,-86.71 -15.69,-154.88l0 -1076.43z"/>
    <path id="_5" class="fil4" d="M12081.44 2107.56c0,-148.6 45.64,-270.68 136.91,-366.23 94.98,-99.54 219.05,-147.74 371.93,-144.89 133.19,2 233.88,36.79 302.33,104.39l0 -112.95 241.3 0 0 1021.67 -237.88 0 0 -101.26c-79.57,67.89 -181.97,102.68 -307.18,104.68 -140.04,2 -255.27,-37.93 -345.4,-119.22 -108.1,-98.4 -162.01,-227.32 -162.01,-386.19zm241.3 7.41c2.85,181.4 106.39,274.96 310.32,280.66 164.86,-17.97 252.42,-107.81 262.97,-269.25 4.85,-82.43 -10.83,-147.46 -47.06,-195.66 -57.33,-75.58 -138.9,-113.52 -244.72,-113.52 -190.53,17.97 -284.36,117.23 -281.51,297.77z"/>
    <path id="_6" class="fil4" d="M13445.37 1294.39l241.3 -117.23 0 390.19 218.76 0 -1.42 232.74 -217.34 0 0 422.7c0,72.16 11.69,123.21 35.37,153.16 23.38,29.66 70.16,54.19 139.76,73.3l57.9 15.41 -108.1 215.05 -90.7 -26.81c-137.2,-40.79 -223.9,-122.07 -259.84,-243.86 -10.55,-35.09 -15.69,-86.71 -15.69,-154.59l0 -442.38 -145.46 0 0 -246.43 145.46 0 0 -271.25z"/>
    <path id="_7" class="fil4" d="M15099.94 2186.85l-786.36 0c5.71,60.47 29.95,110.95 72.45,151.74 52.19,49.91 120.36,73.58 204.79,70.73 68.45,-1.99 118.93,-10.84 152.31,-26.81 38.79,-17.97 73.3,-46.2 103.82,-84.71l220.19 68.17c-57.62,90.98 -122.93,155.44 -195.95,193.38 -69.31,35.94 -159.15,54.48 -270.1,55.33 -102.4,0.86 -188.54,-16.83 -258.7,-53.33 -70.17,-36.51 -133.2,-96.98 -189.1,-181.41 -53.91,-81.28 -81.01,-177.12 -81.01,-287.21 0,-164.86 50.2,-297.2 150.6,-396.75 95.84,-94.69 212.78,-141.47 351.11,-140.61 111.81,0.85 204.79,21.68 278.66,62.46 164.86,90.99 247.29,266.11 247.29,524.81l0 44.21zm-244.44 -181.4c-3.99,-73.02 -31.66,-131.2 -83.57,-174.56 -52.19,-43.07 -115.23,-64.17 -189.67,-63.32 -74.16,0.86 -136.62,21.97 -187.1,62.75 -53.34,44.5 -80.72,102.97 -81.58,175.13l541.92 0z"/>
    <g>
    </g>
    <g style="clip-path:url(#id1)">
     <g>
      <path class="fil5" d="M5742.36 970.25l9638.5 0 0 1232.97c-3240.77,-404.87 -6454.95,-424.22 -9638.5,0l0 -1232.97z"/>
     </g>
    </g>
    <path class="fil6" d="M7219.27 1185.72l0 268.68 -467.77 0 0 1148.3 -299.47 0 0 -1148.3 -479.17 0 0 -268.68 1246.41 0zm1201.64 1001.12l-786.35 0c5.69,60.47 29.94,110.96 72.44,151.76 52.19,49.92 120.37,73.57 204.8,70.73 68.43,-1.99 118.92,-10.84 152.3,-26.81 38.8,-17.97 73.31,-46.2 103.82,-84.72l220.18 68.17c-57.6,91 -122.93,155.45 -195.93,193.38 -69.31,35.93 -159.15,54.49 -270.11,55.35 -102.4,0.85 -188.54,-16.83 -258.7,-53.34 -70.16,-36.52 -133.19,-96.99 -189.11,-181.4 -53.9,-81.31 -80.99,-177.14 -80.99,-287.22 0,-164.86 50.2,-297.22 150.59,-396.75 95.83,-94.7 212.78,-141.47 351.12,-140.61 111.81,0.85 204.78,21.66 278.66,62.46 164.86,90.97 247.28,266.12 247.28,524.8l0 44.2zm-244.44 -181.38c-3.98,-73.03 -31.66,-131.22 -83.57,-174.55 -52.2,-43.07 -115.23,-64.19 -189.66,-63.34 -74.17,0.86 -136.63,21.98 -187.12,62.75 -53.33,44.51 -80.71,102.97 -81.56,175.14l541.91 0zm417.31 -15.4c0,-218.2 76.7,-351.41 230.16,-399.6 44.49,-14.27 94.7,-21.41 150.59,-21.41 22.83,0 45.94,0.57 69.6,1.73 85.28,8.56 165.71,52.77 241.58,132.91 93.56,-80.71 186.55,-123.78 278.38,-129.49 19.7,-1.14 39.37,-1.71 58.19,-1.71 135.49,0 236.73,42.22 304.05,126.63 36.79,45.37 55.33,135.77 55.33,271.26l0 634.05 -236.16 0 0 -574.17c0,-68.15 -8.85,-116.93 -26.81,-146.3 -23.68,-35.96 -67.04,-55.35 -130.35,-58.19 -125.77,-4.86 -188.54,67.88 -188.54,217.62l0 567.87 -231.02 0 0 -562.73c0,-82.72 -14.27,-138.05 -42.78,-166.59 -28.52,-28.23 -69.31,-42.5 -122.36,-42.5 -54.21,0 -94.98,14.56 -122.36,43.95 -34.23,36.22 -51.34,91.54 -51.34,166.56l0 561.31 -236.16 0 0 -621.2zm2628.03 86.13c0,-146.03 -46.48,-266.69 -139.47,-361.67 -92.68,-95.26 -215.61,-141.46 -367.93,-138.62 -132.91,2.85 -233.32,37.36 -301.49,103.54l0 -108.66 -243.01 0 0 1375.91 237.32 0 0 -479.74c78.72,65.3 181.12,98.96 307.18,100.95 141.18,2.02 256.14,-36.5 345.41,-115.22 107.8,-95.55 161.99,-221.04 161.99,-376.49zm-247.28 -7.13c-2.84,177.97 -105.81,270.1 -308.62,275.82 -164.86,-19.99 -252.14,-107.55 -261.55,-263 -4.55,-81.56 10.86,-145.44 47.08,-191.95 60.47,-77.58 141.46,-114.65 243.01,-110.93 87.28,3.98 157.16,32.78 210.2,86.71 48.5,48.47 71.59,116.07 69.88,203.35zm504.84 -891.9l239.6 0 0 1046.78c0,71.87 12.26,122.64 36.79,152.58 24.53,29.96 71.3,54.21 140.33,73.03l58.19 15.69 -108.09 214.48 -91 -27.1c-137.48,-40.51 -224.19,-122.07 -260.12,-244.15 -10.55,-35.08 -15.7,-86.7 -15.7,-154.88l0 -1076.43zm602.1 930.39c0,-148.59 45.66,-270.67 136.92,-366.22 94.98,-99.53 219.04,-147.74 371.93,-144.87 133.19,1.99 233.89,36.78 302.34,104.39l0 -112.95 241.31 0 0 1021.65 -237.89 0 0 -101.26c-79.58,67.89 -181.98,102.68 -307.18,104.7 -140.04,1.99 -255.29,-37.95 -345.41,-119.23 -108.09,-98.42 -162.02,-227.32 -162.02,-386.21zm241.31 7.42c2.84,181.41 106.38,274.97 310.33,280.68 164.86,-17.99 252.42,-107.83 262.97,-269.25 4.85,-82.44 -10.84,-147.46 -47.06,-195.67 -57.34,-75.6 -138.9,-113.52 -244.71,-113.52 -190.53,17.97 -284.38,117.21 -281.53,297.76zm1122.63 -820.57l241.3 -117.24 0 390.19 218.76 0 -1.42 232.74 -217.34 0 0 422.71c0,72.16 11.69,123.21 35.37,153.15 23.39,29.68 70.16,54.19 139.76,73.32l57.9 15.38 -108.11 215.07 -90.69 -26.81c-137.2,-40.8 -223.9,-122.08 -259.84,-243.87 -10.55,-35.08 -15.69,-86.71 -15.69,-154.59l0 -442.39 -145.45 0 0 -246.42 145.45 0 0 -271.24zm1654.59 892.44l-786.35 0c5.69,60.47 29.94,110.96 72.44,151.76 52.2,49.92 120.37,73.57 204.8,70.73 68.43,-1.99 118.92,-10.84 152.3,-26.81 38.8,-17.97 73.31,-46.2 103.82,-84.72l220.18 68.17c-57.6,91 -122.92,155.45 -195.93,193.38 -69.31,35.93 -159.15,54.49 -270.1,55.35 -102.4,0.85 -188.54,-16.83 -258.71,-53.34 -70.16,-36.52 -133.19,-96.99 -189.11,-181.4 -53.9,-81.31 -80.99,-177.14 -80.99,-287.22 0,-164.86 50.2,-297.22 150.59,-396.75 95.83,-94.7 212.79,-141.47 351.12,-140.61 111.81,0.85 204.78,21.66 278.66,62.46 164.86,90.97 247.28,266.12 247.28,524.8l0 44.2zm-244.43 -181.38c-3.99,-73.03 -31.67,-131.22 -83.58,-174.55 -52.2,-43.07 -115.23,-64.19 -189.66,-63.34 -74.16,0.86 -136.62,21.98 -187.11,62.75 -53.34,44.51 -80.71,102.97 -81.57,175.14l541.92 0z"/>
   </g>
   <g>
    <g style="clip-path:url(#id2)">
     <image x="10513.78" y="2898.76" width="4288.67" height="2252.78" xlink:href="logomarca_Images\logomarca_ImgID2.png"/>
    </g>
   </g>
   <path class="fil0" d="M11714.92 3085.31c-11.99,0 -26.7,-9.29 -44.11,-27.47 -6.2,-5.81 -11.61,-10.84 -16.26,-14.71 -33.66,-32.51 -72.75,-56.11 -116.86,-70.82 -43.73,-14.7 -95.2,-22.05 -154.02,-22.05 -165.62,0 -303.38,33.28 -412.51,99.84 -109.51,66.55 -164.07,147.82 -164.07,244.17 0,55.34 16.64,97.13 50.3,126.16 33.67,28.63 82.81,42.95 147.05,42.95 65.79,0 163.3,-13.54 292.55,-40.63 129.25,-27.09 224.45,-40.63 285.59,-40.63 119.57,0 214.38,36.37 284.81,108.74 70.04,72.75 105.25,171.04 105.25,294.87 0,193.48 -82.03,354.08 -246.5,481 -164.46,126.93 -374.97,190.39 -631.15,190.39 -122.28,0 -225.6,-28.63 -309.96,-85.52 -84.36,-56.88 -126.54,-119.96 -126.54,-188.45 0,-15.87 4.64,-29.02 13.54,-38.7 9.29,-9.67 20.9,-14.7 35.22,-14.7 18.96,0 36.76,15.09 53.4,45.27 7.35,12.77 13.54,22.45 18.19,29.41 37.92,54.95 80.87,94.04 129.25,116.48 48.37,22.83 112.99,34.05 193.87,34.05 221.73,0 403.22,-53.4 544.85,-160.2 141.25,-107.19 212.06,-242.63 212.06,-406.32 0,-94.81 -25.15,-167.17 -75.84,-218.25 -50.7,-51.08 -123.06,-76.62 -216.71,-76.62 -54.95,0 -144.72,12.38 -268.55,37.14 -124.22,24.77 -219.42,37.15 -285.59,37.15 -100.61,0 -178.01,-22.83 -232.57,-68.49 -54.56,-45.66 -81.65,-111.45 -81.65,-196.97 0,-126.93 65.4,-234.5 196.19,-323.51 130.8,-88.61 294.1,-133.12 489.91,-133.12 103.32,0 192.71,19.35 267.4,58.44 74.68,39.08 112.22,81.26 112.22,126.54 0,15.86 -4.64,29.02 -13.54,39.08 -9.29,10.06 -20.9,15.48 -35.22,15.48z"/>
   <path id="_1_0" class="fil0" d="M12290.35 4248.55c0,-249.21 -5.42,-489.52 -16.25,-720.93 -1.55,-34.05 -2.32,-53.79 -2.32,-59.98 0,-19.74 4.25,-35.22 13.15,-47.21 8.52,-11.61 20.51,-17.42 35.99,-17.42 16.64,0 29.03,5.81 36.76,17.42 8.13,11.99 13.55,35.6 16.64,71.2 0,3.48 0.39,10.45 1.17,20.12 9.67,235.28 14.7,499.2 14.7,792.52 0,49.92 -3.87,82.43 -11.22,97.52 -7.74,15.09 -21.67,22.83 -42.18,22.83 -16.64,0 -28.64,-6.58 -35.6,-19.74 -7.36,-13.15 -10.84,-37.15 -10.84,-70.81l0 -85.52z"/>
   <path id="_2_1" class="fil0" d="M13633.15 3505.17c-247.28,30.19 -450.83,104.49 -610.64,222.51 -159.82,118.42 -239.93,248.44 -239.93,390.46 0,48.37 12.77,84.74 37.93,109.51 25.54,24.38 63.07,36.76 112.99,36.76 112.61,0 229.86,-47.21 351.37,-141.63 121.9,-94.42 240.7,-230.25 357.18,-407.87l-8.9 -209.74zm15.86 378.46c-115.7,157.89 -234.89,277.85 -357.17,359.89 -122.67,82.03 -243.79,123.05 -362.98,123.05 -79.72,0 -141.63,-21.67 -186.14,-65.01 -44.5,-43.73 -66.94,-104.09 -66.94,-181.1 0,-85.91 27.09,-171.82 81.65,-256.56 54.18,-85.14 132.34,-164.47 234.5,-237.6 51.47,-36.38 106.81,-68.88 166.02,-97.52 59.2,-28.64 121.5,-53.02 186.52,-72.75 61.91,-17.8 119.96,-32.12 173.75,-42.18 54.17,-10.45 98.29,-15.48 131.95,-15.48 29.03,0 49.15,5.03 60.76,14.71 11.61,9.67 19.35,29.79 23.22,59.98 8.51,71.97 15.86,188.45 22.83,349.82 6.58,161.37 10.06,335.12 10.06,520.86 0,152.08 -6.58,265.08 -19.35,339.38 -12.77,74.68 -34.05,136.6 -64.62,186.52 -31.35,51.46 -73.53,91.32 -125.38,120.34 -52.24,28.64 -109.13,42.96 -171.04,42.96 -45.28,0 -88.23,-7.74 -128.09,-22.83 -39.86,-15.09 -81.65,-39.09 -124.61,-72.37 -30.95,-23.21 -56.11,-46.82 -75.84,-70.81 -19.74,-23.61 -29.41,-41.8 -29.41,-54.57 0,-15.09 4.25,-27.47 12.38,-36.76 8.51,-9.67 18.96,-14.32 31.73,-14.32 14.32,0 34.83,13.55 61.53,40.64 8.9,9.28 16.64,16.64 23.61,22.83 43.72,41.4 82.81,70.81 116.86,88.61 34.05,17.81 68.49,26.71 103.32,26.71 104.1,0 177.62,-42.57 220.19,-128.09 42.95,-85.52 64.24,-243.41 64.24,-473.66 0,-75.07 -1.16,-149.75 -3.49,-224.44 -2.32,-75.07 -5.41,-151.69 -10.06,-230.25z"/>
   <path id="_3_2" class="fil0" d="M14210.89 3611.2c116.87,-75.45 218.64,-132.73 305.32,-171.04 86.3,-38.69 156.34,-58.04 208.97,-58.04 53.01,0 90.16,15.86 111.83,47.21 21.29,31.34 32.9,92.1 34.44,181.87l10.06 732.54c0,21.29 -4.64,37.93 -13.93,50.7 -9.28,12.38 -22.05,18.57 -37.53,18.57 -16.64,0 -29.03,-5.8 -37.93,-17.41 -8.51,-12 -12.77,-29.03 -12.77,-51.86l-8.9 -723.25c-1.54,-54.56 -8.12,-90.16 -18.96,-106.8 -10.83,-16.64 -30.18,-24.77 -57.27,-24.77 -47.6,0 -113.38,19.35 -196.97,58.43 -83.58,38.7 -178.39,94.81 -284.04,167.18 0,7.74 1.55,78.94 4.26,213.99 3.1,135.05 4.65,266.24 4.65,394.33 0,5.8 0.38,13.54 1.16,23.21 0.77,9.29 1.16,16.26 1.16,20.9 0,22.06 -4.65,39.08 -14.32,51.08 -9.29,12 -22.45,18.19 -39.09,18.19 -18.18,0 -31.34,-6.97 -39.08,-20.51 -8.13,-13.55 -12,-36.38 -12,-68.88 0,-17.42 0.39,-40.63 1.17,-69.27 0.77,-28.64 1.16,-49.92 1.16,-63.46 0,-223.67 -5.81,-445.79 -17.42,-665.59 -2.32,-37.15 -3.48,-58.82 -3.48,-65.79 0,-19.74 5.03,-35.6 14.7,-47.6 9.68,-11.99 21.68,-18.19 35.99,-18.19 35.6,0.78 54.57,53.02 57.66,157.12 0,15.86 0.39,28.24 1.16,37.14z"/>
   <g>
    <path class="fil7" d="M5190.91 5561.33c9.7,5.19 19.63,9 29.66,11.55 10.04,2.41 20.63,3.67 31.96,3.67 26.77,0 47.88,-6 63.32,-18.11 15.48,-12 23.21,-28.37 23.21,-49.14 0,-24.81 -20.21,-53.54 -60.57,-86.2 -0.23,-0.22 -0.37,-0.33 -0.37,-0.33 -0.67,-0.45 -1.71,-1.27 -3,-2.3 -58.36,-46.73 -87.54,-87.91 -87.54,-123.79 0,-16.4 3.56,-32.66 10.85,-48.69 7.14,-15.93 17.4,-30.59 30.66,-43.85 20.08,-19.62 41.66,-34.62 64.62,-44.88 22.96,-10.26 46.62,-15.33 70.95,-15.33 17.55,0 30.81,2.86 39.58,8.75 8.77,5.88 13.15,14.66 13.15,26.43 0,4.04 -1.49,9.45 -4.38,16.03 -2.88,6.7 -7.17,14.53 -12.81,23.55 -8.77,-3.59 -17.77,-6.36 -26.88,-8.32 -9.11,-1.97 -18.47,-2.89 -27.92,-2.89 -28.85,0 -51.47,6.47 -67.84,19.4 -16.26,13.03 -24.47,30.8 -24.47,53.29 0,13.51 3.36,25.84 10.04,36.8 6.58,11.08 19.03,24.22 37.39,39.58 2.66,2.3 6.56,5.53 11.77,9.82 61.25,51.32 91.95,94.83 91.95,130.46 0,13.51 -2.44,26.77 -7.26,39.92 -4.85,13.03 -12.14,25.84 -21.81,38.54 -16.51,20.88 -36.92,37.03 -61.39,48.47 -24.44,11.41 -50.88,17.07 -79.25,17.07 -19.14,0 -33.69,-3.36 -43.5,-9.92 -9.82,-6.7 -14.66,-16.52 -14.66,-29.33 0,-5.85 1.17,-12.11 3.58,-18.78 2.3,-6.59 6,-13.73 10.96,-21.47zm460.43 34.51c36.59,0 66.47,-12.25 89.76,-36.7 23.33,-24.47 34.96,-55.84 34.96,-94.16 0,-37.36 -11.41,-67.84 -34.26,-91.35 -22.84,-23.55 -52.61,-35.32 -89.05,-35.32 -37.15,0 -67.28,12.25 -90.13,36.69 -22.82,24.47 -34.25,56.76 -34.25,97.16 0,35.74 11.66,65.4 34.84,88.72 23.18,23.3 52.62,34.96 88.13,34.96zm-4.03 48.66c-52.26,0 -94.84,-16.15 -127.72,-48.33 -32.88,-32.18 -49.36,-73.5 -49.36,-124.01 0,-53.65 17.52,-97.16 52.73,-130.6 35.18,-33.47 80.76,-50.21 136.82,-50.21 50.77,0 92.54,15.92 125.28,47.66 32.77,31.73 49.17,71.98 49.17,120.67 0,19.63 -3.12,39 -9.37,58.14 -6.11,19.18 -14.52,35.44 -25.14,48.92 -20.07,25.99 -42.69,45.36 -68.06,58.39 -25.4,12.92 -53.43,19.37 -84.35,19.37zm344.74 -23.63c-9.45,5.19 -18.34,9 -26.52,11.52 -8.19,2.44 -15.92,3.7 -23.07,3.7 -10.85,0 -18.25,-3.11 -22.29,-9.33 -4.03,-6.11 -6.11,-17.78 -6.11,-34.96 0,-21.36 1.29,-62.09 3.7,-122.19 2.41,-60.1 3.7,-109.61 3.7,-148.6 0,-48.22 -1.51,-84.8 -4.4,-109.61 -2.89,-24.92 -7.85,-43.95 -14.88,-56.99 8.99,-5.18 17.66,-8.99 25.95,-11.52 8.44,-2.44 16.29,-3.7 23.66,-3.7 11.3,0 18.92,2.78 22.96,8.41 4.04,5.66 6.11,17.21 6.11,34.51 0,14.41 -1.26,52.25 -3.67,113.64 -2.44,61.25 -3.7,115.24 -3.7,161.86 0,50.07 1.37,86.54 4.26,109.49 2.78,23.07 7.51,40.96 14.3,53.77zm315.78 -33.81c-15.22,18.7 -31.7,32.52 -49.25,41.29 -17.66,8.78 -37.51,13.15 -59.54,13.15 -37.15,0 -65.65,-11.18 -85.36,-33.67 -19.74,-22.39 -29.55,-54.8 -29.55,-97.15 0,-9 0.59,-25.6 1.74,-49.85 1.04,-24.22 1.6,-43.95 1.6,-59.28 0,-20.55 -1.15,-37.74 -3.67,-51.58 -2.44,-13.85 -6.48,-25.96 -12.11,-36.33 10.14,-4.97 18.92,-8.67 26.52,-10.96 7.51,-2.44 13.84,-3.59 19.03,-3.59 10.62,0 17.88,2.66 21.81,7.96 3.92,5.3 5.89,15 5.89,29.18 0,11.33 -0.93,32.88 -2.67,64.73 -1.82,31.95 -2.74,58.16 -2.74,78.68 0,43.03 5.18,72.8 15.55,89.43 10.4,16.48 28.29,24.8 53.77,24.8 18.7,0 35.99,-4.51 51.91,-13.51 15.81,-8.99 31.4,-23.18 46.51,-42.58 0.81,-14.41 1.49,-29.63 1.96,-45.44 0.45,-15.92 0.68,-33.36 0.68,-52.28 0,-30.67 -1.49,-56.29 -4.6,-76.95 -3,-20.52 -7.74,-36.91 -14.3,-48.8 10.15,-5.19 19.15,-9 27,-11.52 7.96,-2.44 15.11,-3.7 21.67,-3.7 9.92,0 16.73,3.11 20.54,9.47 3.93,6.34 5.78,19.96 5.78,40.96 0,9.81 -0.59,31.59 -1.85,65.28 -1.26,33.7 -1.85,62.54 -1.85,86.43 0,33.33 1.37,59.06 4.26,77.28 2.77,18.11 7.4,32.21 13.96,42.36 -11.3,5.41 -20.63,9.33 -28.03,11.63 -7.38,2.44 -13.85,3.59 -19.26,3.59 -9.7,0 -16.26,-3.33 -19.96,-9.92 -3.59,-6.7 -5.44,-19.74 -5.44,-39.11zm366.77 -223.69c-8.77,-5.44 -17.4,-9.37 -25.73,-11.67 -8.3,-2.43 -17.52,-3.58 -27.67,-3.58 -34.28,0 -62.76,12.25 -85.5,36.8 -22.73,24.59 -34.14,55.73 -34.14,93.35 0,34.03 10.04,61.03 30.22,80.99 20.18,19.95 47.54,29.88 82.02,29.88 14.78,0 28.4,-2.08 40.51,-6.11 12.22,-4.04 23.55,-10.4 34.14,-18.93 4.04,5.64 7.15,11.08 9.37,16.26 2.18,5.19 3.22,10.15 3.22,14.89 0,14.18 -8.19,25.4 -24.7,33.81 -16.51,8.29 -38.77,12.44 -66.91,12.44 -49.39,0 -89.54,-14.18 -120.45,-42.44 -30.81,-28.26 -46.26,-65.06 -46.26,-110.31 0,-55.02 18.7,-101.16 56.07,-138.67 37.5,-37.37 82.83,-56.07 136.26,-56.07 19.6,0 34.14,2.78 43.7,8.41 9.59,5.67 14.44,14.22 14.44,25.74 0,5.88 -1.51,11.55 -4.37,17.07 -2.89,5.55 -7.63,11.55 -14.22,18.14zm-84.68 257.5c-8.3,9 -14.63,16.96 -19.03,24 -4.38,7.03 -6.56,12.55 -6.56,16.84 0,5.89 5.18,10.15 15.55,12.93 1.29,0.44 2.33,0.78 3,1.03 13.04,3.34 22.04,7.71 26.89,13.26 4.85,5.55 7.28,13.51 7.28,23.89 0,20.07 -7.84,36.91 -23.65,50.65 -15.81,13.71 -35.19,20.63 -58.14,20.63 -7.85,0 -13.85,-1.48 -17.78,-4.6 -3.92,-3 -5.88,-7.62 -5.88,-13.96 0,-1.62 0.22,-3.58 0.81,-6.11 0.56,-2.44 1.6,-6.11 2.89,-11.07 3.22,0.79 6.11,1.49 8.63,1.96 2.55,0.45 4.96,0.68 7.29,0.68 11.63,0 21.33,-2.78 28.82,-8.41 7.51,-5.67 11.32,-12.59 11.32,-20.66 0,-5.67 -1.51,-9.82 -4.4,-12.45 -2.89,-2.78 -9.78,-4.96 -20.52,-6.81 -12.22,-2.33 -19.96,-4.96 -23.32,-8.08 -3.34,-3.25 -5.08,-7.96 -5.08,-14.21 0,-6.56 3.12,-14.41 9.26,-23.63 6.22,-9.36 16.7,-21.25 31.59,-35.88l31.03 0zm327.3 -25.03c36.59,0 66.47,-12.25 89.76,-36.7 23.33,-24.47 34.96,-55.84 34.96,-94.16 0,-37.36 -11.41,-67.84 -34.26,-91.35 -22.84,-23.55 -52.61,-35.32 -89.05,-35.32 -37.15,0 -67.28,12.25 -90.13,36.69 -22.82,24.47 -34.25,56.76 -34.25,97.16 0,35.74 11.66,65.4 34.84,88.72 23.18,23.3 52.62,34.96 88.13,34.96zm-4.03 48.66c-52.26,0 -94.84,-16.15 -127.72,-48.33 -32.88,-32.18 -49.36,-73.5 -49.36,-124.01 0,-53.65 17.52,-97.16 52.73,-130.6 35.18,-33.47 80.76,-50.21 136.82,-50.21 50.77,0 92.54,15.92 125.28,47.66 32.77,31.73 49.17,71.98 49.17,120.67 0,19.63 -3.12,39 -9.37,58.14 -6.11,19.18 -14.52,35.44 -25.14,48.92 -20.07,25.99 -42.69,45.36 -68.06,58.39 -25.4,12.92 -53.43,19.37 -84.35,19.37zm-35.88 -415.32c-11.75,0 -23.3,4.51 -34.85,13.51 -11.52,9 -17.85,13.48 -19.26,13.48 -3.11,0 -5.52,-1.15 -7.03,-3.34 -1.63,-2.32 -2.41,-5.77 -2.41,-10.51 0,-16.03 7.48,-30.8 22.59,-44.51 15.11,-13.74 32.07,-20.66 50.77,-20.66 11.07,0 26.18,3.11 45.58,9.22 19.37,6.22 33.1,9.36 40.95,9.36 11.08,0 21.7,-4.06 31.96,-12.02 10.26,-7.96 15.92,-12 17.07,-12 2.89,0 5.19,1.04 6.7,3 1.6,2.1 2.41,4.96 2.41,8.89 0,17.54 -6.56,32.76 -19.59,45.58 -13.04,12.81 -28.74,19.25 -46.96,19.25 -11.1,0 -26.32,-3.22 -45.8,-9.67 -19.51,-6.36 -33.58,-9.58 -42.13,-9.58zm333.66 202.81c14.89,2.44 31.29,4.29 49.17,5.55 18,1.26 37.26,1.85 58.03,1.85 28.14,0 46.95,-2.55 56.4,-7.74 9.47,-5.18 14.21,-14.55 14.21,-28.14 0,-20.44 -7.17,-36.7 -21.36,-48.69 -14.18,-11.89 -33.55,-17.89 -58.03,-17.89 -26.18,0 -47.87,8.3 -65.28,25.03 -17.33,16.63 -28.4,40.03 -33.14,70.03zm196.73 132.82c4.97,5.99 8.64,11.74 10.96,17.07 2.42,5.18 3.56,10.37 3.56,15.33 0,12.11 -9.11,22.15 -27.21,29.88 -18.11,7.74 -41.77,11.66 -71.07,11.66 -53.87,0 -96.12,-14.66 -126.56,-44.09 -30.59,-29.41 -45.81,-70.02 -45.81,-121.83 0,-52.25 15.34,-95.06 46.14,-128.27 30.7,-33.25 70.28,-49.85 118.5,-49.85 37.14,0 67.61,10.6 91.49,31.74 23.89,21.22 35.89,48.32 35.89,81.21 0,25.84 -9.93,44.43 -29.78,55.36 -19.84,11.1 -53.54,16.62 -101.08,16.62 -17.74,0 -35.52,-0.56 -53.18,-1.85 -17.77,-1.26 -35.29,-3.11 -52.61,-5.63l0 4.82c0,35.1 10.4,62.9 31.17,83.42 20.63,20.44 48.77,30.7 84.43,30.7 16.62,0 32.07,-2.19 46.28,-6.59 14.19,-4.37 27.11,-10.96 38.88,-19.7zm106.47 17.18c8.1,4.26 15.81,7.37 23.32,9.45 7.38,1.96 14.66,3 21.56,3 16.29,0 29.32,-3.93 39.25,-11.64 9.92,-7.73 14.88,-17.99 14.88,-30.58 0,-9.92 -2.66,-19.15 -8.07,-27.7 -5.44,-8.66 -15.59,-19.03 -30.47,-31.14 -2.41,-1.85 -5.89,-4.51 -10.15,-8.07 -38.07,-31.62 -57.1,-59.54 -57.1,-83.76 0,-9.93 1.96,-19.85 5.74,-29.77 3.82,-9.93 9.48,-19.37 16.85,-28.37 14.21,-16.85 30.81,-29.77 49.84,-38.66 19.04,-8.89 39.7,-13.4 61.73,-13.4 10.85,0 19.03,2.08 24.7,6.25 5.66,4.15 8.4,10.15 8.4,18.11 0,3.81 -1.03,8.3 -2.99,13.6 -2.08,5.32 -5.41,11.99 -10.15,20.1 -6.11,-2.44 -11.89,-4.29 -17.3,-5.55 -5.44,-1.27 -10.62,-1.85 -15.81,-1.85 -18.7,0 -33.92,4.62 -45.47,13.73 -11.63,9.11 -17.4,20.89 -17.4,35.29 0,15.7 15.69,37.03 46.95,63.81 7.85,6.81 13.85,12.1 17.88,15.92 13.26,11.66 23.07,23.18 29.41,34.62 6.36,11.41 9.47,23.07 9.47,34.95 0,28.26 -12.47,52.51 -37.39,72.92 -24.78,20.43 -55.14,30.58 -90.66,30.58 -12.36,0 -21.92,-2.44 -28.62,-7.4 -6.59,-4.96 -9.92,-12 -9.92,-21 0,-4.26 0.92,-9 2.66,-14.18 1.82,-5.19 4.71,-11.66 8.86,-19.26zm477.64 -150c14.89,2.44 31.29,4.29 49.17,5.55 18,1.26 37.26,1.85 58.03,1.85 28.14,0 46.95,-2.55 56.4,-7.74 9.47,-5.18 14.21,-14.55 14.21,-28.14 0,-20.44 -7.18,-36.7 -21.36,-48.69 -14.18,-11.89 -33.55,-17.89 -58.03,-17.89 -26.18,0 -47.88,8.3 -65.28,25.03 -17.33,16.63 -28.4,40.03 -33.14,70.03zm196.73 132.82c4.96,5.99 8.64,11.74 10.96,17.07 2.41,5.18 3.56,10.37 3.56,15.33 0,12.11 -9.11,22.15 -27.22,29.88 -18.11,7.74 -41.76,11.66 -71.06,11.66 -53.88,0 -96.12,-14.66 -126.56,-44.09 -30.59,-29.41 -45.81,-70.02 -45.81,-121.83 0,-52.25 15.33,-95.06 46.14,-128.27 30.7,-33.25 70.28,-49.85 118.49,-49.85 37.15,0 67.62,10.6 91.5,31.74 23.89,21.22 35.88,48.32 35.88,81.21 0,25.84 -9.92,44.43 -29.77,55.36 -19.84,11.1 -53.54,16.62 -101.08,16.62 -17.75,0 -35.52,-0.56 -53.18,-1.85 -17.77,-1.26 -35.29,-3.11 -52.61,-5.63l0 4.82c0,35.1 10.39,62.9 31.17,83.42 20.63,20.44 48.77,30.7 84.43,30.7 16.62,0 32.07,-2.19 46.28,-6.59 14.19,-4.37 27.11,-10.96 38.88,-19.7zm97.61 -263.65c5.19,-1.74 10.15,-3.11 14.86,-3.92 4.73,-0.82 9.7,-1.15 14.88,-1.15 12.25,0 21.7,3.22 28.62,9.7 6.82,6.33 10.74,15.7 11.66,27.81 17.78,-12.11 35.19,-21.11 52.14,-27 17.08,-5.89 34.04,-8.77 50.88,-8.77 16.51,0 31.96,3.22 46.51,9.56 14.52,6.47 28.14,16.06 40.73,28.95 17.86,-12.89 36.78,-22.96 56.99,-30.1 20.18,-7.26 39.44,-10.85 57.91,-10.85 40.37,0 71.29,11.77 92.87,35.21 21.45,23.4 32.3,56.99 32.3,100.72 0,6.22 -0.34,18.81 -1.04,37.48 -0.7,18.69 -1.04,34.39 -1.04,46.95 0,29.1 1.4,51.47 4.04,67.16 2.66,15.56 7.04,28.26 13.15,37.96 -11.3,5.41 -20.63,9.33 -28.26,11.63 -7.48,2.44 -14.18,3.59 -20.07,3.59 -10.62,0 -17.89,-2.66 -21.81,-7.96 -3.92,-5.3 -5.89,-15.59 -5.89,-30.92 0,-13.96 0.82,-36.33 2.55,-67.25 1.71,-30.81 2.53,-54.47 2.53,-70.98 0,-40.59 -6.11,-69.8 -18.45,-87.91 -12.25,-17.99 -32.07,-26.99 -59.31,-26.99 -14.89,0 -29.19,2.19 -43.03,6.59 -13.96,4.37 -28.85,11.66 -44.88,21.81 2.3,13.7 3.92,28.14 4.96,43.14 1.04,15 1.51,35.88 1.51,62.65l0 35.52c0,31.06 1.15,54.24 3.34,69.46 2.3,15.11 6.22,27.92 11.88,38.29 -9.92,5.22 -18.69,8.89 -26.43,11.22 -7.6,2.18 -15,3.33 -22.26,3.33 -10.15,0 -17.18,-2.77 -21.11,-8.41 -3.92,-5.66 -5.88,-16.06 -5.88,-31.17 0,-8.07 0.59,-26.41 1.85,-54.92 1.26,-28.48 1.85,-52.84 1.85,-73.13 0,-47.77 -5.33,-80.17 -16.04,-97.27 -10.73,-17.19 -29.21,-25.71 -55.28,-25.71 -13.84,0 -27.8,2.64 -41.99,7.96 -14.18,5.3 -28.84,13.26 -43.95,23.75 -0.45,18.69 -1.04,42.69 -1.85,71.9 -0.82,29.18 -1.15,47.18 -1.15,54.21 0,30 1.37,54.1 4.03,72.47 2.67,18.33 6.93,33.66 12.81,45.77 -9.47,4.96 -18.1,8.66 -25.95,10.96 -7.85,2.44 -15.7,3.59 -23.3,3.59 -10.4,0 -17.43,-2.89 -21.25,-8.77 -3.81,-5.89 -5.77,-18.11 -5.77,-36.81 0,-5.41 1.29,-27.81 3.92,-67.14 2.55,-39.33 3.82,-75.91 3.82,-109.94 0,-26.88 -1.38,-49.28 -4.04,-67.28 -2.78,-17.99 -6.93,-32.99 -12.56,-44.99zm1145.62 -85.24c-12.44,-5.67 -25.7,-9.82 -39.92,-12.59 -14.18,-2.66 -29.51,-4.04 -46.02,-4.04 -64.14,0 -115.95,17.55 -155.39,52.62 -39.47,34.96 -59.2,80.87 -59.2,137.75 0,56.06 18.58,102.21 55.73,138.23 37.25,36.1 84.91,54.1 143.04,54.1 18.03,0 35.21,-2.19 51.58,-6.48 16.26,-4.26 32.55,-10.96 48.81,-19.96 6.7,8.78 11.66,16.52 14.66,23.22 3.11,6.67 4.6,12.78 4.6,18.44 0,13.96 -9.93,24.81 -29.75,32.66 -19.84,7.74 -47.43,11.63 -82.83,11.63 -38.1,0 -73.17,-5.18 -105.35,-15.56 -32.07,-10.4 -59.99,-25.51 -83.64,-45.24 -28.63,-23.86 -50.07,-51.22 -64.37,-82.02 -14.32,-30.81 -21.47,-64.84 -21.47,-102.21 0,-39.47 8.77,-75.69 26.18,-108.68 17.44,-32.99 43.62,-62.54 78.24,-88.38 25.71,-19.15 56.07,-34.04 91.13,-44.52 35.07,-10.51 71.88,-15.7 110.42,-15.7 29.77,0 50.66,2.41 62.65,7.37 12.11,4.97 18.11,13.63 18.11,25.74 0,5.18 -1.4,11.3 -4.29,18.33 -2.74,7.18 -7.14,15.59 -12.92,25.29zm269.28 379.92c36.58,0 66.46,-12.25 89.76,-36.7 23.32,-24.47 34.96,-55.84 34.96,-94.16 0,-37.36 -11.41,-67.84 -34.26,-91.35 -22.85,-23.55 -52.62,-35.32 -89.06,-35.32 -37.14,0 -67.28,12.25 -90.12,36.69 -22.82,24.47 -34.26,56.76 -34.26,97.16 0,35.74 11.66,65.4 34.85,88.72 23.18,23.3 52.61,34.96 88.13,34.96zm-4.04 48.66c-52.25,0 -94.83,-16.15 -127.71,-48.33 -32.88,-32.18 -49.37,-73.5 -49.37,-124.01 0,-53.65 17.52,-97.16 52.73,-130.6 35.18,-33.47 80.76,-50.21 136.83,-50.21 50.76,0 92.53,15.92 125.27,47.66 32.77,31.73 49.17,71.98 49.17,120.67 0,19.63 -3.11,39 -9.36,58.14 -6.11,19.18 -14.52,35.44 -25.15,48.92 -20.07,25.99 -42.69,45.36 -68.06,58.39 -25.4,12.92 -53.43,19.37 -84.35,19.37zm252.13 -343.34c5.18,-1.74 10.14,-3.11 14.85,-3.92 4.74,-0.82 9.7,-1.15 14.89,-1.15 12.25,0 21.69,3.22 28.62,9.7 6.81,6.33 10.73,15.7 11.66,27.81 17.77,-12.11 35.18,-21.11 52.14,-27 17.07,-5.89 34.03,-8.77 50.88,-8.77 16.51,0 31.95,3.22 46.5,9.56 14.52,6.47 28.15,16.06 40.73,28.95 17.86,-12.89 36.78,-22.96 56.99,-30.1 20.19,-7.26 39.45,-10.85 57.92,-10.85 40.36,0 71.28,11.77 92.87,35.21 21.44,23.4 32.29,56.99 32.29,100.72 0,6.22 -0.33,18.81 -1.03,37.48 -0.71,18.69 -1.04,34.39 -1.04,46.95 0,29.1 1.4,51.47 4.03,67.16 2.67,15.56 7.04,28.26 13.15,37.96 -11.3,5.41 -20.63,9.33 -28.25,11.63 -7.49,2.44 -14.19,3.59 -20.08,3.59 -10.62,0 -17.88,-2.66 -21.8,-7.96 -3.93,-5.3 -5.89,-15.59 -5.89,-30.92 0,-13.96 0.81,-36.33 2.55,-67.25 1.71,-30.81 2.52,-54.47 2.52,-70.98 0,-40.59 -6.11,-69.8 -18.44,-87.91 -12.25,-17.99 -32.07,-26.99 -59.32,-26.99 -14.88,0 -29.18,2.19 -43.03,6.59 -13.96,4.37 -28.84,11.66 -44.88,21.81 2.3,13.7 3.93,28.14 4.96,43.14 1.04,15 1.52,35.88 1.52,62.65l0 35.52c0,31.06 1.15,54.24 3.33,69.46 2.3,15.11 6.23,27.92 11.89,38.29 -9.92,5.22 -18.7,8.89 -26.44,11.22 -7.59,2.18 -14.99,3.33 -22.25,3.33 -10.15,0 -17.19,-2.77 -21.11,-8.41 -3.93,-5.66 -5.89,-16.06 -5.89,-31.17 0,-8.07 0.59,-26.41 1.85,-54.92 1.26,-28.48 1.85,-52.84 1.85,-73.13 0,-47.77 -5.32,-80.17 -16.03,-97.27 -10.74,-17.19 -29.21,-25.71 -55.28,-25.71 -13.85,0 -27.81,2.64 -41.99,7.96 -14.19,5.3 -28.85,13.26 -43.96,23.75 -0.45,18.69 -1.04,42.69 -1.85,71.9 -0.81,29.18 -1.15,47.18 -1.15,54.21 0,30 1.38,54.1 4.04,72.47 2.66,18.33 6.92,33.66 12.81,45.77 -9.48,4.96 -18.11,8.66 -25.96,10.96 -7.85,2.44 -15.7,3.59 -23.29,3.59 -10.4,0 -17.44,-2.89 -21.25,-8.77 -3.81,-5.89 -5.78,-18.11 -5.78,-36.81 0,-5.41 1.29,-27.81 3.93,-67.14 2.55,-39.33 3.81,-75.91 3.81,-109.94 0,-26.88 -1.37,-49.28 -4.04,-67.28 -2.77,-17.99 -6.92,-32.99 -12.55,-44.99zm818.31 285.9c-15.22,18.7 -31.7,32.52 -49.25,41.29 -17.66,8.78 -37.51,13.15 -59.54,13.15 -37.14,0 -65.65,-11.18 -85.36,-33.67 -19.73,-22.39 -29.55,-54.8 -29.55,-97.15 0,-9 0.59,-25.6 1.74,-49.85 1.04,-24.22 1.6,-43.95 1.6,-59.28 0,-20.55 -1.15,-37.74 -3.67,-51.58 -2.44,-13.85 -6.48,-25.96 -12.11,-36.33 10.15,-4.97 18.92,-8.67 26.52,-10.96 7.51,-2.44 13.85,-3.59 19.03,-3.59 10.63,0 17.89,2.66 21.81,7.96 3.92,5.3 5.89,15 5.89,29.18 0,11.33 -0.93,32.88 -2.67,64.73 -1.82,31.95 -2.74,58.16 -2.74,78.68 0,43.03 5.18,72.8 15.55,89.43 10.4,16.48 28.29,24.8 53.77,24.8 18.7,0 35.99,-4.51 51.92,-13.51 15.81,-8.99 31.39,-23.18 46.5,-42.58 0.81,-14.41 1.49,-29.63 1.96,-45.44 0.45,-15.92 0.68,-33.36 0.68,-52.28 0,-30.67 -1.49,-56.29 -4.6,-76.95 -3,-20.52 -7.74,-36.91 -14.3,-48.8 10.15,-5.19 19.15,-9 27,-11.52 7.96,-2.44 15.11,-3.7 21.67,-3.7 9.92,0 16.73,3.11 20.54,9.47 3.93,6.34 5.78,19.96 5.78,40.96 0,9.81 -0.59,31.59 -1.85,65.28 -1.26,33.7 -1.85,62.54 -1.85,86.43 0,33.33 1.37,59.06 4.26,77.28 2.77,18.11 7.4,32.21 13.96,42.36 -11.3,5.41 -20.63,9.33 -28.03,11.63 -7.37,2.44 -13.85,3.59 -19.26,3.59 -9.7,0 -16.26,-3.33 -19.96,-9.92 -3.59,-6.7 -5.44,-19.74 -5.44,-39.11zm219.92 -210.55c-0.45,24.81 -1.04,51.44 -1.85,79.95 -0.82,28.48 -1.15,44.54 -1.15,48.1 0,29.33 1.37,53.07 4.03,71.43 2.67,18.22 6.93,33.44 12.81,45.55 -9.47,4.96 -18.11,8.66 -26.07,10.96 -7.85,2.44 -15.58,3.59 -23.32,3.59 -10.26,0 -17.41,-2.89 -21.22,-8.77 -3.81,-5.89 -5.77,-18.11 -5.77,-36.92 0,-4.04 1.17,-24.92 3.58,-62.65 2.41,-37.71 3.59,-73.36 3.59,-106.95 0,-31.84 -1.29,-56.28 -3.7,-73.72 -2.55,-17.3 -6.59,-32.88 -12.22,-46.59 4.96,-1.63 9.92,-2.78 15,-3.7 5.07,-0.93 10.03,-1.4 14.74,-1.4 11.89,0 21.36,3.36 28.4,9.92 7.03,6.7 10.96,16.04 11.88,28.29 16.85,-12.25 34.74,-21.59 53.66,-28.29 18.92,-6.56 37.7,-9.92 56.17,-9.92 22.49,0 42.7,4.85 60.69,14.66 17.89,9.81 31.6,23.43 41.07,40.73 6.45,12 11.19,25.96 13.96,41.77 2.89,15.92 4.26,40.03 4.26,72.57 0,3.34 -0.22,11.3 -0.56,24 -0.36,12.56 -0.48,23.52 -0.48,32.74 0,23.21 1.52,43.17 4.63,59.76 3,16.74 7.48,29.78 13.6,39.25 -10.6,5.19 -19.71,9 -27.56,11.52 -7.74,2.44 -14.77,3.7 -21.11,3.7 -10.62,0 -17.99,-2.77 -22.17,-8.3 -4.15,-5.55 -6.22,-15.92 -6.22,-31.28 0,-9.22 0.7,-29.07 2.18,-59.62 1.52,-30.59 2.22,-56.55 2.22,-77.91 0,-40.81 -6.25,-70.36 -18.59,-88.69 -12.47,-18.36 -32.29,-27.58 -59.88,-27.58 -13.96,0 -28.95,2.88 -45.21,8.66 -16.29,5.74 -32.66,14.07 -49.39,25.14zm410.36 244.36c-9.45,5.19 -18.45,9 -27,11.52 -8.52,2.44 -16.7,3.7 -24.66,3.7 -11.08,0 -18.59,-3 -22.51,-9 -3.93,-5.88 -5.89,-17.88 -5.89,-35.99 0,-10.26 1.04,-33.58 3.11,-69.58 1.96,-36.1 3,-67.02 3,-92.98 0,-28.14 -1.37,-50.99 -4.04,-68.65 -2.77,-17.52 -7.14,-32.55 -13.14,-44.88 8.29,-4.96 16.84,-8.77 25.62,-11.3 8.77,-2.66 17.52,-3.92 26.07,-3.92 10.37,0 17.41,2.52 21.22,7.6 3.81,5.1 5.77,14.43 5.77,28.28 0,3.56 -1.03,23.29 -3,59.06 -2.07,35.89 -3.11,69.92 -3.11,102.1 0,30.24 1.49,55.16 4.6,75.01 3,19.82 7.74,36.22 13.96,49.03zm-2.64 -424.24c0,12.92 -4.51,23.55 -13.51,32.21 -9,8.52 -20.4,12.81 -34.14,12.81 -12,0 -21.47,-3.36 -28.37,-10.18 -7.06,-6.78 -10.51,-15.92 -10.51,-27.33 0,-12.7 4.51,-23.43 13.51,-32.29 9,-8.89 19.96,-13.4 32.74,-13.4 11.78,0 21.36,3.59 28.96,10.85 7.51,7.15 11.32,16.26 11.32,27.33z"/>
    <path class="fil7" d="M11697.7 5363.37c-8.77,-5.44 -17.41,-9.37 -25.73,-11.67 -8.3,-2.43 -17.52,-3.58 -27.67,-3.58 -34.28,0 -62.76,12.25 -85.5,36.8 -22.73,24.59 -34.14,55.73 -34.14,93.35 0,34.03 10.03,61.03 30.22,80.99 20.18,19.95 47.54,29.88 82.02,29.88 14.77,0 28.4,-2.08 40.51,-6.11 12.22,-4.04 23.54,-10.4 34.14,-18.93 4.04,5.64 7.15,11.08 9.36,16.26 2.19,5.19 3.23,10.15 3.23,14.89 0,14.18 -8.19,25.4 -24.7,33.81 -16.51,8.29 -38.77,12.44 -66.91,12.44 -49.4,0 -89.54,-14.18 -120.46,-42.44 -30.8,-28.26 -46.25,-65.06 -46.25,-110.31 0,-55.02 18.7,-101.16 56.06,-138.67 37.51,-37.37 82.84,-56.07 136.27,-56.07 19.59,0 34.14,2.78 43.7,8.41 9.59,5.67 14.44,14.22 14.44,25.74 0,5.88 -1.52,11.55 -4.38,17.07 -2.88,5.55 -7.62,11.55 -14.21,18.14zm349.45 254.84c-8.74,5.55 -16.71,9.92 -23.99,12.81 -7.15,2.88 -13.49,4.37 -18.93,4.37 -9.67,0 -16.7,-3 -21.1,-9 -4.38,-5.88 -6.93,-15.56 -7.6,-28.84 -16.85,14.43 -33.58,25.17 -50.21,32.09 -16.59,7.04 -33.44,10.49 -50.51,10.49 -33.81,0 -61.17,-9.45 -81.8,-28.37 -20.77,-18.92 -31.17,-43.84 -31.17,-74.65 0,-34.96 14.32,-62.99 42.81,-83.98 28.5,-21.14 66.91,-31.63 115.15,-31.63 7.85,0 16.26,0.23 25.15,0.82 8.88,0.56 18.47,1.48 28.62,2.52 0.45,-1.96 0.67,-4.04 0.81,-6.22 0.11,-2.19 0.22,-4.63 0.22,-7.63 0,-23.4 -6.69,-41.29 -19.84,-53.51 -13.15,-12.36 -32.32,-18.47 -57.36,-18.47 -20.74,0 -37.84,3.47 -51.21,10.26 -13.37,6.92 -24.33,17.54 -32.66,31.95 -8.07,-2.07 -14.29,-5.52 -18.44,-10.48 -4.15,-4.96 -6.23,-11.3 -6.23,-19.26 0,-16.4 10.38,-29.99 31.26,-40.73 20.88,-10.74 48.1,-16.04 81.68,-16.04 41.18,0 72.22,9.93 92.76,29.89 20.64,19.96 31.04,49.73 31.04,89.39 0,7.51 -0.34,20.44 -1.04,38.88 -0.7,18.48 -1.04,33.36 -1.04,44.66 0,31.03 1.85,56.06 5.52,74.98 3.82,18.93 9.81,34.18 18.11,45.7zm-74.28 -150.45c-10.38,-1.6 -19.74,-2.78 -27.92,-3.56 -8.19,-0.82 -15.22,-1.18 -21.11,-1.18 -34.96,0 -61.39,5.78 -79.14,17.44 -17.88,11.55 -26.77,28.84 -26.77,51.8 0,18.59 6.23,33.11 18.56,43.62 12.47,10.59 29.55,15.92 51.47,15.92 16.48,0 31.84,-3.14 46.14,-9.36 14.29,-6.11 27.47,-15.45 39.47,-27.81 -0.48,-11.3 -0.82,-20.41 -0.93,-27.56 -0.11,-7.03 -0.11,-13.96 -0.11,-20.43 0,-4.04 0.11,-10.37 0.34,-19.15 0.22,-8.66 0.22,-15.22 0,-19.73zm362.96 -104.39c-8.78,-5.44 -17.41,-9.37 -25.74,-11.67 -8.29,-2.43 -17.52,-3.58 -27.66,-3.58 -34.29,0 -62.77,12.25 -85.5,36.8 -22.74,24.59 -34.14,55.73 -34.14,93.35 0,34.03 10.03,61.03 30.21,80.99 20.19,19.95 47.55,29.88 82.03,29.88 14.77,0 28.39,-2.08 40.5,-6.11 12.22,-4.04 23.55,-10.4 34.15,-18.93 4.03,5.64 7.14,11.08 9.36,16.26 2.19,5.19 3.22,10.15 3.22,14.89 0,14.18 -8.18,25.4 -24.69,33.81 -16.51,8.29 -38.77,12.44 -66.92,12.44 -49.39,0 -89.53,-14.18 -120.45,-42.44 -30.81,-28.26 -46.25,-65.06 -46.25,-110.31 0,-55.02 18.69,-101.16 56.06,-138.67 37.51,-37.37 82.84,-56.07 136.26,-56.07 19.6,0 34.15,2.78 43.71,8.41 9.58,5.67 14.43,14.22 14.43,25.74 0,5.88 -1.51,11.55 -4.37,17.07 -2.89,5.55 -7.62,11.55 -14.21,18.14zm-84.69 257.5c-8.29,9 -14.63,16.96 -19.03,24 -4.37,7.03 -6.56,12.55 -6.56,16.84 0,5.89 5.19,10.15 15.56,12.93 1.29,0.44 2.32,0.78 3,1.03 13.03,3.34 22.03,7.71 26.88,13.26 4.85,5.55 7.29,13.51 7.29,23.89 0,20.07 -7.85,36.91 -23.66,50.65 -15.81,13.71 -35.18,20.63 -58.14,20.63 -7.85,0 -13.85,-1.48 -17.77,-4.6 -3.93,-3 -5.89,-7.62 -5.89,-13.96 0,-1.62 0.22,-3.58 0.81,-6.11 0.56,-2.44 1.6,-6.11 2.89,-11.07 3.22,0.79 6.11,1.49 8.63,1.96 2.56,0.45 4.97,0.68 7.29,0.68 11.64,0 21.34,-2.78 28.82,-8.41 7.51,-5.67 11.33,-12.59 11.33,-20.66 0,-5.67 -1.52,-9.82 -4.41,-12.45 -2.88,-2.78 -9.78,-4.96 -20.52,-6.81 -12.22,-2.33 -19.95,-4.96 -23.32,-8.08 -3.33,-3.25 -5.07,-7.96 -5.07,-14.21 0,-6.56 3.11,-14.41 9.25,-23.63 6.22,-9.36 16.71,-21.25 31.59,-35.88l31.03 0zm434.14 -2.66c-8.75,5.55 -16.71,9.92 -24,12.81 -7.15,2.88 -13.48,4.37 -18.92,4.37 -9.67,0 -16.71,-3 -21.11,-9 -4.37,-5.88 -6.92,-15.56 -7.59,-28.84 -16.85,14.43 -33.59,25.17 -50.21,32.09 -16.6,7.04 -33.44,10.49 -50.51,10.49 -33.81,0 -61.17,-9.45 -81.8,-28.37 -20.77,-18.92 -31.17,-43.84 -31.17,-74.65 0,-34.96 14.32,-62.99 42.8,-83.98 28.51,-21.14 66.91,-31.63 115.16,-31.63 7.85,0 16.26,0.23 25.14,0.82 8.89,0.56 18.48,1.48 28.62,2.52 0.45,-1.96 0.68,-4.04 0.82,-6.22 0.11,-2.19 0.22,-4.63 0.22,-7.63 0,-23.4 -6.7,-41.29 -19.85,-53.51 -13.14,-12.36 -32.32,-18.47 -57.35,-18.47 -20.74,0 -37.84,3.47 -51.22,10.26 -13.37,6.92 -24.33,17.54 -32.65,31.95 -8.08,-2.07 -14.3,-5.52 -18.45,-10.48 -4.15,-4.96 -6.22,-11.3 -6.22,-19.26 0,-16.4 10.37,-29.99 31.26,-40.73 20.88,-10.74 48.1,-16.04 81.68,-16.04 41.18,0 72.21,9.93 92.76,29.89 20.63,19.96 31.03,49.73 31.03,89.39 0,7.51 -0.34,20.44 -1.04,38.88 -0.7,18.48 -1.03,33.36 -1.03,44.66 0,31.03 1.85,56.06 5.52,74.98 3.81,18.93 9.81,34.18 18.11,45.7zm-74.29 -150.45c-10.37,-1.6 -19.73,-2.78 -27.92,-3.56 -8.18,-0.82 -15.22,-1.18 -21.11,-1.18 -34.95,0 -61.39,5.78 -79.13,17.44 -17.89,11.55 -26.77,28.84 -26.77,51.8 0,18.59 6.22,33.11 18.56,43.62 12.47,10.59 29.54,15.92 51.46,15.92 16.49,0 31.85,-3.14 46.14,-9.36 14.3,-6.11 27.48,-15.45 39.47,-27.81 -0.47,-11.3 -0.81,-20.41 -0.92,-27.56 -0.11,-7.03 -0.11,-13.96 -0.11,-20.43 0,-4.04 0.11,-10.37 0.33,-19.15 0.23,-8.66 0.23,-15.22 0,-19.73zm-110.64 -238.58c-11.77,0 -23.3,4.51 -34.84,13.51 -11.53,9 -17.89,13.48 -19.26,13.48 -3.11,0 -5.55,-1.15 -7.04,-3.34 -1.62,-2.32 -2.44,-5.77 -2.44,-10.51 0,-16.03 7.51,-30.8 22.62,-44.51 15.11,-13.74 32.07,-20.66 50.77,-20.66 11.07,0 26.18,3.11 45.58,9.22 19.37,6.22 33.11,9.36 40.96,9.36 11.07,0 21.67,-4.06 31.95,-12.02 10.26,-7.96 15.93,-12 17.07,-12 2.89,0 5.19,1.04 6.7,3 1.6,2.1 2.42,4.96 2.42,8.89 0,17.54 -6.59,32.76 -19.63,45.58 -13.03,12.81 -28.73,19.25 -46.95,19.25 -11.07,0 -26.3,-3.22 -45.81,-9.67 -19.48,-6.36 -33.55,-9.58 -42.1,-9.58zm422.84 366.66c36.58,0 66.46,-12.25 89.76,-36.7 23.32,-24.47 34.95,-55.84 34.95,-94.16 0,-37.36 -11.41,-67.84 -34.25,-91.35 -22.85,-23.55 -52.62,-35.32 -89.06,-35.32 -37.14,0 -67.28,12.25 -90.12,36.69 -22.82,24.47 -34.26,56.76 -34.26,97.16 0,35.74 11.66,65.4 34.84,88.72 23.19,23.3 52.62,34.96 88.14,34.96zm-4.04 48.66c-52.25,0 -94.83,-16.15 -127.71,-48.33 -32.89,-32.18 -49.37,-73.5 -49.37,-124.01 0,-53.65 17.52,-97.16 52.73,-130.6 35.18,-33.47 80.76,-50.21 136.83,-50.21 50.76,0 92.53,15.92 125.27,47.66 32.77,31.73 49.17,71.98 49.17,120.67 0,19.63 -3.11,39 -9.36,58.14 -6.11,19.18 -14.52,35.44 -25.15,48.92 -20.07,25.99 -42.69,45.36 -68.06,58.39 -25.4,12.92 -53.43,19.37 -84.35,19.37zm410.76 -468.87c7.37,-9.22 15.11,-16.03 22.96,-20.4 7.96,-4.38 16.37,-6.59 25.37,-6.59 22.03,0 44.65,34.84 67.61,104.42 2.89,8.18 5.07,14.41 6.45,18.92 0,0 0.11,0.11 0.36,0.34 62.62,185.29 98.28,277.94 107.17,277.94 3.11,0 9.11,-5.55 17.88,-16.37 8.78,-10.96 18,-24.92 27.7,-41.77 34.48,-60.92 59.06,-113.31 73.84,-157.38 14.77,-44.06 22.14,-85.83 22.14,-125.3 0,-9.45 -0.7,-18.56 -1.96,-27.33 -1.37,-8.77 -3.45,-17.07 -6.11,-25.03 7.37,-2.89 14.18,-5.08 20.29,-6.37 6,-1.37 11.66,-2.07 16.85,-2.07 13.96,0 23.66,3.36 29.18,10.15 5.55,6.7 8.33,18.58 8.33,35.54 0,43.84 -11.33,94.5 -33.92,151.71 -22.74,57.24 -58.95,126.01 -108.68,206.29 -23.33,37.84 -40.03,62.99 -50.43,75.46 -10.37,12.56 -18.67,18.81 -25.04,18.81 -7.84,0 -16.84,-7.85 -26.99,-23.54 -10.15,-15.59 -21.45,-39.22 -33.81,-70.73 -18.69,-46.73 -41.65,-108.09 -68.98,-184.25 -40.03,-112.72 -70.14,-176.86 -90.21,-192.45zm580.29 445.24c-9.44,5.19 -18.44,9 -26.99,11.52 -8.52,2.44 -16.71,3.7 -24.67,3.7 -11.07,0 -18.59,-3 -22.51,-9 -3.92,-5.88 -5.89,-17.88 -5.89,-35.99 0,-10.26 1.04,-33.58 3.11,-69.58 1.97,-36.1 3,-67.02 3,-92.98 0,-28.14 -1.37,-50.99 -4.03,-68.65 -2.78,-17.52 -7.15,-32.55 -13.15,-44.88 8.3,-4.96 16.85,-8.77 25.62,-11.3 8.78,-2.66 17.52,-3.92 26.07,-3.92 10.37,0 17.41,2.52 21.22,7.6 3.81,5.1 5.78,14.43 5.78,28.28 0,3.56 -1.04,23.29 -3,59.06 -2.08,35.89 -3.11,69.92 -3.11,102.1 0,30.24 1.48,55.16 4.59,75.01 3,19.82 7.74,36.22 13.96,49.03zm-2.63 -424.24c0,12.92 -4.52,23.55 -13.51,32.21 -9,8.52 -20.41,12.81 -34.15,12.81 -11.99,0 -21.47,-3.36 -28.37,-10.18 -7.06,-6.78 -10.51,-15.92 -10.51,-27.33 0,-12.7 4.52,-23.43 13.51,-32.29 9,-8.89 19.96,-13.4 32.75,-13.4 11.77,0 21.36,3.59 28.95,10.85 7.52,7.15 11.33,16.26 11.33,27.33zm93.32 385.36c8.1,4.26 15.81,7.37 23.32,9.45 7.37,1.96 14.66,3 21.56,3 16.28,0 29.32,-3.93 39.24,-11.64 9.93,-7.73 14.89,-17.99 14.89,-30.58 0,-9.92 -2.67,-19.15 -8.08,-27.7 -5.43,-8.66 -15.58,-19.03 -30.47,-31.14 -2.41,-1.85 -5.88,-4.51 -10.14,-8.07 -38.07,-31.62 -57.11,-59.54 -57.11,-83.76 0,-9.93 1.97,-19.85 5.75,-29.77 3.81,-9.93 9.48,-19.37 16.85,-28.37 14.21,-16.85 30.8,-29.77 49.84,-38.66 19.03,-8.89 39.69,-13.4 61.73,-13.4 10.84,0 19.03,2.08 24.69,6.25 5.66,4.15 8.41,10.15 8.41,18.11 0,3.81 -1.04,8.3 -3,13.6 -2.07,5.32 -5.41,11.99 -10.15,20.1 -6.11,-2.44 -11.88,-4.29 -17.29,-5.55 -5.44,-1.27 -10.63,-1.85 -15.81,-1.85 -18.7,0 -33.92,4.62 -45.47,13.73 -11.63,9.11 -17.41,20.89 -17.41,35.29 0,15.7 15.7,37.03 46.96,63.81 7.85,6.81 13.84,12.1 17.88,15.92 13.26,11.66 23.07,23.18 29.41,34.62 6.36,11.41 9.47,23.07 9.47,34.95 0,28.26 -12.47,52.51 -37.39,72.92 -24.78,20.43 -55.14,30.58 -90.66,30.58 -12.36,0 -21.92,-2.44 -28.62,-7.4 -6.59,-4.96 -9.92,-12 -9.92,-21 0,-4.26 0.92,-9 2.66,-14.18 1.82,-5.19 4.71,-11.66 8.86,-19.26zm457.68 5.07c-15.22,18.7 -31.7,32.52 -49.25,41.29 -17.66,8.78 -37.51,13.15 -59.54,13.15 -37.15,0 -65.65,-11.18 -85.36,-33.67 -19.74,-22.39 -29.55,-54.8 -29.55,-97.15 0,-9 0.59,-25.6 1.74,-49.85 1.04,-24.22 1.6,-43.95 1.6,-59.28 0,-20.55 -1.15,-37.74 -3.67,-51.58 -2.44,-13.85 -6.48,-25.96 -12.11,-36.33 10.14,-4.97 18.92,-8.67 26.51,-10.96 7.52,-2.44 13.85,-3.59 19.04,-3.59 10.62,0 17.88,2.66 21.81,7.96 3.92,5.3 5.88,15 5.88,29.18 0,11.33 -0.92,32.88 -2.66,64.73 -1.82,31.95 -2.75,58.16 -2.75,78.68 0,43.03 5.19,72.8 15.56,89.43 10.4,16.48 28.29,24.8 53.77,24.8 18.7,0 35.99,-4.51 51.91,-13.51 15.81,-8.99 31.4,-23.18 46.51,-42.58 0.81,-14.41 1.48,-29.63 1.96,-45.44 0.45,-15.92 0.67,-33.36 0.67,-52.28 0,-30.67 -1.48,-56.29 -4.59,-76.95 -3,-20.52 -7.74,-36.91 -14.3,-48.8 10.15,-5.19 19.15,-9 27,-11.52 7.96,-2.44 15.1,-3.7 21.66,-3.7 9.93,0 16.74,3.11 20.55,9.47 3.93,6.34 5.78,19.96 5.78,40.96 0,9.81 -0.59,31.59 -1.85,65.28 -1.26,33.7 -1.85,62.54 -1.85,86.43 0,33.33 1.37,59.06 4.26,77.28 2.77,18.11 7.4,32.21 13.96,42.36 -11.3,5.41 -20.63,9.33 -28.03,11.63 -7.38,2.44 -13.85,3.59 -19.26,3.59 -9.7,0 -16.26,-3.33 -19.96,-9.92 -3.59,-6.7 -5.44,-19.74 -5.44,-39.11zm422.84 31.15c-8.75,5.55 -16.71,9.92 -24,12.81 -7.15,2.88 -13.48,4.37 -18.92,4.37 -9.67,0 -16.71,-3 -21.11,-9 -4.37,-5.88 -6.92,-15.56 -7.59,-28.84 -16.85,14.43 -33.59,25.17 -50.21,32.09 -16.6,7.04 -33.44,10.49 -50.51,10.49 -33.81,0 -61.17,-9.45 -81.8,-28.37 -20.77,-18.92 -31.17,-43.84 -31.17,-74.65 0,-34.96 14.32,-62.99 42.8,-83.98 28.51,-21.14 66.91,-31.63 115.16,-31.63 7.85,0 16.26,0.23 25.14,0.82 8.89,0.56 18.48,1.48 28.62,2.52 0.45,-1.96 0.68,-4.04 0.82,-6.22 0.11,-2.19 0.22,-4.63 0.22,-7.63 0,-23.4 -6.7,-41.29 -19.85,-53.51 -13.14,-12.36 -32.32,-18.47 -57.35,-18.47 -20.74,0 -37.84,3.47 -51.22,10.26 -13.37,6.92 -24.33,17.54 -32.65,31.95 -8.08,-2.07 -14.3,-5.52 -18.45,-10.48 -4.15,-4.96 -6.22,-11.3 -6.22,-19.26 0,-16.4 10.37,-29.99 31.26,-40.73 20.88,-10.74 48.1,-16.04 81.68,-16.04 41.18,0 72.21,9.93 92.76,29.89 20.63,19.96 31.03,49.73 31.03,89.39 0,7.51 -0.34,20.44 -1.04,38.88 -0.7,18.48 -1.03,33.36 -1.03,44.66 0,31.03 1.85,56.06 5.52,74.98 3.81,18.93 9.81,34.18 18.11,45.7zm-74.29 -150.45c-10.37,-1.6 -19.73,-2.78 -27.92,-3.56 -8.18,-0.82 -15.22,-1.18 -21.11,-1.18 -34.95,0 -61.39,5.78 -79.13,17.44 -17.89,11.55 -26.77,28.84 -26.77,51.8 0,18.59 6.22,33.11 18.56,43.62 12.47,10.59 29.54,15.92 51.46,15.92 16.49,0 31.85,-3.14 46.14,-9.36 14.3,-6.11 27.48,-15.45 39.47,-27.81 -0.47,-11.3 -0.81,-20.41 -0.92,-27.56 -0.11,-7.03 -0.11,-13.96 -0.11,-20.43 0,-4.04 0.11,-10.37 0.33,-19.15 0.23,-8.66 0.23,-15.22 0,-19.73zm237.44 153.11c-9.45,5.19 -18.34,9 -26.52,11.52 -8.19,2.44 -15.93,3.7 -23.07,3.7 -10.85,0 -18.25,-3.11 -22.29,-9.33 -4.04,-6.11 -6.11,-17.78 -6.11,-34.96 0,-21.36 1.29,-62.09 3.7,-122.19 2.41,-60.1 3.7,-109.61 3.7,-148.6 0,-48.22 -1.51,-84.8 -4.4,-109.61 -2.89,-24.92 -7.85,-43.95 -14.89,-56.99 9,-5.18 17.66,-8.99 25.96,-11.52 8.44,-2.44 16.29,-3.7 23.66,-3.7 11.3,0 18.92,2.78 22.96,8.41 4.04,5.66 6.11,17.21 6.11,34.51 0,14.41 -1.26,52.25 -3.67,113.64 -2.44,61.25 -3.7,115.24 -3.7,161.86 0,50.07 1.37,86.54 4.26,109.49 2.77,23.07 7.51,40.96 14.3,53.77z"/>
   </g>
  </g>
 </g>
</svg>
